<svg xmlns="http://www.w3.org/2000/svg" viewBox="0 0 800 500">
  <defs>
    <linearGradient id="g" x1="0" x2="1">
      <stop offset="0" stop-color="#0ea5a4"/>
      <stop offset="1" stop-color="#2563eb"/>
    </linearGradient>
  </defs>
  <rect width="100%" height="100%" rx="20" fill="#071033" />

  <!-- card -->
  <g transform="translate(40,40)">
    <rect width="720" height="420" rx="16" fill="url(#g)" opacity="0.14" />

    <!-- shield -->
    <g transform="translate(110,90)">
      <path d="M80 0 L140 40 L120 120 L40 120 L20 40 Z" fill="#0b1220" opacity="0.12"/>
      <path d="M80 8 L132 44 L116 112 L44 112 L28 44 Z" fill="#0b1220"/>
      <path d="M80 22 C92 22 100 30 100 42 C100 74 80 94 80 94 C80 94 60 74 60 42 C60 30 68 22 80 22 Z" fill="#fff" opacity="0.95"/>
      <rect x="-10" y="140" width="220" height="12" rx="6" fill="#ffffff" opacity="0.08"/>
    </g>

    <!-- log lines -->
    <g transform="translate(360,80)" fill="#ffffff" opacity="0.9">
      <rect x="0" y="0" width="260" height="18" rx="8" fill="#ffffff" opacity="0.12"/>
      <rect x="0" y="36" width="200" height="12" rx="6" fill="#ffffff" opacity="0.08"/>
      <rect x="0" y="64" width="240" height="12" rx="6" fill="#ffffff" opacity="0.08"/>
      <rect x="0" y="92" width="180" height="12" rx="6" fill="#ffffff" opacity="0.08"/>
    </g>

    <text x="64" y="360" font-family="Inter, Arial, Helvetica, sans-serif" font-size="28" fill="#e6eef8">Aksa — Cybersecurity Platform</text>
  </g>
</svg>